<svg width="30" height="42" viewBox="0 0 30 42" fill="none" xmlns="http://www.w3.org/2000/svg">
<path d="M14.9998 0.166672C6.93734 0.166672 0.416504 6.68751 0.416504 14.75C0.416504 25.6875 14.9998 41.8333 14.9998 41.8333C14.9998 41.8333 29.5832 25.6875 29.5832 14.75C29.5832 6.68751 23.0623 0.166672 14.9998 0.166672ZM14.9998 19.9583C13.6185 19.9583 12.2937 19.4096 11.317 18.4329C10.3402 17.4561 9.7915 16.1313 9.7915 14.75C9.7915 13.3687 10.3402 12.0439 11.317 11.0672C12.2937 10.0904 13.6185 9.54167 14.9998 9.54167C16.3812 9.54167 17.7059 10.0904 18.6827 11.0672C19.6594 12.0439 20.2082 13.3687 20.2082 14.75C20.2082 16.1313 19.6594 17.4561 18.6827 18.4329C17.7059 19.4096 16.3812 19.9583 14.9998 19.9583Z" fill="white"/>
</svg>
