<svg width="42" height="34" viewBox="0 0 42 34" fill="none" xmlns="http://www.w3.org/2000/svg">
<path d="M4.33341 33.6667C3.18758 33.6667 2.20703 33.259 1.39175 32.4437C0.575081 31.6271 0.166748 30.6458 0.166748 29.5V4.49999C0.166748 3.35416 0.575081 2.37361 1.39175 1.55833C2.20703 0.741661 3.18758 0.333328 4.33341 0.333328H37.6667C38.8126 0.333328 39.7938 0.741661 40.6105 1.55833C41.4258 2.37361 41.8334 3.35416 41.8334 4.49999V29.5C41.8334 30.6458 41.4258 31.6271 40.6105 32.4437C39.7938 33.259 38.8126 33.6667 37.6667 33.6667H4.33341ZM21.0001 19.0833L4.33341 8.66666V29.5H37.6667V8.66666L21.0001 19.0833ZM21.0001 14.9167L37.6667 4.49999H4.33341L21.0001 14.9167ZM4.33341 8.66666V4.49999V29.5V8.66666Z" fill="white"/>
</svg>
