<svg width="40" height="38" viewBox="0 0 40 38" fill="none" xmlns="http://www.w3.org/2000/svg">
<path d="M8.45833 4.41666C8.45778 5.52173 8.01826 6.58132 7.23647 7.36233C6.45468 8.14334 5.39465 8.5818 4.28958 8.58124C3.18452 8.58069 2.12493 8.14117 1.34392 7.35938C0.562905 6.57759 0.124448 5.51756 0.125001 4.41249C0.125553 3.30742 0.56507 2.24784 1.34686 1.46682C2.12865 0.685814 3.18868 0.247358 4.29375 0.24791C5.39882 0.248463 6.45841 0.687979 7.23942 1.46977C8.02043 2.25156 8.45889 3.31159 8.45833 4.41666ZM8.58333 11.6667H0.25V37.75H8.58333V11.6667ZM21.75 11.6667H13.4583V37.75H21.6667V24.0625C21.6667 16.4375 31.6042 15.7292 31.6042 24.0625V37.75H39.8333V21.2292C39.8333 8.37499 25.125 8.85416 21.6667 15.1667L21.75 11.6667Z" fill="white"/>
</svg>
